HIERARCHY
ROOT hip
{
  OFFSET 0 0 0
  CHANNELS 6 Xposition Yposition Zposition Zrotation Yrotation Xrotation
  JOINT abdomen
  {
    OFFSET 0 20.6881 -0.73152
    CHANNELS 3 Zrotation Xrotation Yrotation
    JOINT chest
    {
      OFFSET 0 11.7043 -0.48768
      CHANNELS 3 Zrotation Xrotation Yrotation
      JOINT neck
      {
        OFFSET 0 22.1894 -2.19456
        CHANNELS 3 Zrotation Xrotation Yrotation
        JOINT head
        {
          OFFSET -0.24384 7.07133 1.2192
          CHANNELS 3 Zrotation Xrotation Yrotation
          JOINT leftEye
          {
            OFFSET 4.14528 8.04674 8.04672
            CHANNELS 3 Zrotation Xrotation Yrotation
            End Site
            {
              OFFSET 1 0 0
            }
          }
          JOINT rightEye
          {
            OFFSET -3.6576 8.04674 8.04672
            CHANNELS 3 Zrotation Xrotation Yrotation
            End Site
            {
              OFFSET 1 0 0
            }
          }
        }
      }
      JOINT rCollar
      {
        OFFSET -2.68224 19.2634 -4.8768
        CHANNELS 3 Zrotation Xrotation Yrotation
        JOINT rShldr
        {
          OFFSET -8.77824 -1.95073 1.46304
          CHANNELS 3 Zrotation Xrotation Yrotation
          JOINT rForeArm
          {
            OFFSET -28.1742 -1.7115 0.48768
            CHANNELS 3 Zrotation Xrotation Yrotation
            JOINT rHand
            {
              OFFSET -22.5879 0.773209 7.07136
              CHANNELS 3 Zrotation Xrotation Yrotation
              JOINT rThumb1
              {
                OFFSET -1.2192 -0.487915 3.41376
                CHANNELS 3 Zrotation Xrotation Yrotation
                JOINT rThumb2
                {
                  OFFSET -3.37035 -0.52449 3.41376
                  CHANNELS 3 Zrotation Xrotation Yrotation
                  End Site
                  {
                    OFFSET -1.78271 -1.18214 1.43049
                  }
                }
              }
              JOINT rIndex1
              {
                OFFSET -7.75947 0.938293 5.60832
                CHANNELS 3 Zrotation Xrotation Yrotation
                JOINT rIndex2
                {
                  OFFSET -2.54057 -0.884171 1.56538
                  CHANNELS 3 Zrotation Xrotation Yrotation
                  End Site
                  {
                    OFFSET -1.62519 -0.234802 1.16502
                  }
                }
              }
              JOINT rMid1
              {
                OFFSET -8.24714 1.18213 3.41376
                CHANNELS 3 Zrotation Xrotation Yrotation
                JOINT rMid2
                {
                  OFFSET -3.10165 -0.590103 1.0647
                  CHANNELS 3 Zrotation Xrotation Yrotation
                  End Site
                  {
                    OFFSET -2.48547 -0.328903 0.83742
                  }
                }
              }
              JOINT rRing1
              {
                OFFSET -8.82822 0.546677 1.51678
                CHANNELS 3 Zrotation Xrotation Yrotation
                JOINT rRing2
                {
                  OFFSET -2.60934 -0.819778 -0.0198488
                  CHANNELS 3 Zrotation Xrotation Yrotation
                  End Site
                  {
                    OFFSET -2.33842 -0.294052 0.168128
                  }
                }
              }
              JOINT rPinky1
              {
                OFFSET -8.27202 -0.0477905 -0.4584
                CHANNELS 3 Zrotation Xrotation Yrotation
                JOINT rPinky2
                {
                  OFFSET -1.82734 -0.647385 -0.700984
                  CHANNELS 3 Zrotation Xrotation Yrotation
                  End Site
                  {
                    OFFSET -1.69225 -0.51767 -0.607171
                  }
                }
              }
            }
          }
        }
      }
      JOINT lCollar
      {
        OFFSET 2.68224 19.2634 -4.8768
        CHANNELS 3 Zrotation Xrotation Yrotation
        JOINT lShldr
        {
          OFFSET 8.77824 -1.95073 1.46304
          CHANNELS 3 Zrotation Xrotation Yrotation
          JOINT lForeArm
          {
            OFFSET 28.1742 -1.7115 0.48768
            CHANNELS 3 Zrotation Xrotation Yrotation
            JOINT lHand
            {
              OFFSET 22.5879 0.773209 7.07136
              CHANNELS 3 Zrotation Xrotation Yrotation
              JOINT lThumb1
              {
                OFFSET 1.2192 -0.487915 3.41376
                CHANNELS 3 Zrotation Xrotation Yrotation
                JOINT lThumb2
                {
                  OFFSET 3.37035 -0.52449 3.41376
                  CHANNELS 3 Zrotation Xrotation Yrotation
                  End Site
                  {
                    OFFSET 1.78271 -1.18214 1.43049
                  }
                }
              }
              JOINT lIndex1
              {
                OFFSET 7.75947 0.938293 5.60832
                CHANNELS 3 Zrotation Xrotation Yrotation
                JOINT lIndex2
                {
                  OFFSET 2.54057 -0.884171 1.56538
                  CHANNELS 3 Zrotation Xrotation Yrotation
                  End Site
                  {
                    OFFSET 1.62519 -0.234802 1.16502
                  }
                }
              }
              JOINT lMid1
              {
                OFFSET 8.24714 1.18213 3.41376
                CHANNELS 3 Zrotation Xrotation Yrotation
                JOINT lMid2
                {
                  OFFSET 3.10165 -0.590103 1.0647
                  CHANNELS 3 Zrotation Xrotation Yrotation
                  End Site
                  {
                    OFFSET 2.48547 -0.328903 0.83742
                  }
                }
              }
              JOINT lRing1
              {
                OFFSET 8.82822 0.546677 1.51678
                CHANNELS 3 Zrotation Xrotation Yrotation
                JOINT lRing2
                {
                  OFFSET 2.60934 -0.819778 -0.0198488
                  CHANNELS 3 Zrotation Xrotation Yrotation
                  End Site
                  {
                    OFFSET 2.33842 -0.294052 0.168128
                  }
                }
              }
              JOINT lPinky1
              {
                OFFSET 8.27202 -0.0477905 -0.4584
                CHANNELS 3 Zrotation Xrotation Yrotation
                JOINT lPinky2
                {
                  OFFSET 1.82734 -0.647385 -0.700984
                  CHANNELS 3 Zrotation Xrotation Yrotation
                  End Site
                  {
                    OFFSET 1.69225 -0.51767 -0.607171
                  }
                }
              }
            }
          }
        }
      }
    }
  }
  JOINT rButtock
  {
    OFFSET -8.77824 4.35084 1.2192
    CHANNELS 3 Zrotation Xrotation Yrotation
    JOINT rThigh
    {
      OFFSET 0 -1.70687 -2.19456
      CHANNELS 3 Zrotation Xrotation Yrotation
      JOINT rShin
      {
        OFFSET 0 -36.8199 0.73152
        CHANNELS 3 Zrotation Xrotation Yrotation
        JOINT rFoot
        {
          OFFSET 0.73152 -45.1104 -5.12064
          CHANNELS 3 Zrotation Xrotation Yrotation
          End Site
          {
            OFFSET -1.1221 -3.69964 12.103
          }
        }
      }
    }
  }
  JOINT lButtock
  {
    OFFSET 8.77824 4.35084 1.2192
    CHANNELS 3 Zrotation Xrotation Yrotation
    JOINT lThigh
    {
      OFFSET 0 -1.70687 -2.19456
      CHANNELS 3 Zrotation Xrotation Yrotation
      JOINT lShin
      {
        OFFSET 0 -36.8199 0.73152
        CHANNELS 3 Zrotation Xrotation Yrotation
        JOINT lFoot
        {
          OFFSET -0.73152 -45.1104 -5.12064
          CHANNELS 3 Zrotation Xrotation Yrotation
          End Site
          {
            OFFSET 1.1221 -3.69964 12.103
          }
        }
      }
    }
  }
}
MOTION
Frames:	7
Frame Time:	0.00833333
58.112 85.5069 -82.7434 0.0 0.0 0.0 2.2358 -0.000460017 0.0604428 0.61581 0.00897295 0.106593 5.448e-14 0.0 -1.2424e-16 1.63792e-13 -6.36111e-15 -4.98515e-16 -0.0 0.0 0.0 -0.0 0.0 0.0 2.72818e-14 -1.73937e-16 9.93923e-17 5.74299e-13 -3.84524e-15 5.96354e-16 9.87905e-12 -3.07917e-12 -1.46306e-13 1.13003e-10 2.27922e-12 -1.62208e-13 2.66573e-10 -1.73335e-12 -6.77458e-13 4.60355e-10 -2.98654e-12 -1.1784e-12 2.66575e-10 -1.7342e-12 -6.96541e-13 7.73091 5.47488 0.417314 2.66572e-10 -1.734e-12 -6.74278e-13 2.90554 0.965183 0.102902 2.66577e-10 -1.7337e-12 -6.72687e-13 10.2786 0.731801 0.0259123 2.66565e-10 -1.73062e-12 -6.64736e-13 2.22167 -0.733487 -0.20892 2.7187e-14 -1.73937e-16 -1.98785e-16 5.71037e-13 -4.13721e-15 -9.93923e-16 9.87016e-12 2.82612e-12 -1.11319e-13 1.13018e-10 -3.64439e-12 -1.87653e-13 2.66589e-10 -1.77346e-12 -6.67916e-13 4.60403e-10 -3.06287e-12 -1.16408e-12 2.66587e-10 -1.77515e-12 -6.61555e-13 -7.73091 5.47488 -0.417314 2.6659e-10 -1.77385e-12 -6.71097e-13 -2.90554 0.965183 -0.102902 2.66587e-10 -1.77405e-12 -6.73482e-13 -10.2786 0.731801 -0.0259123 2.66596e-10 -1.77197e-12 -6.87e-13 -2.22167 -0.733487 0.20892 -2.03217e-16 0.0 -3.88251e-19 2.21359 -7.80147 -0.224374 0.00520836 8.55927 0.135759 -0.55079 -0.766407 0.0464492 2.03217e-16 0.0 3.88251e-19 1.18597 -1.92859 -0.00257516 0.00907614 -2.07858 0.0748496 0.511587 3.99847 -0.140251
57.1601 84.2141 -86.1121 -4.2381 -6.7843 4.6973 3.17262 -1.4525 -0.976951 0.366053 1.53579 -0.19094 -1.90716 4.47405 -2.01591 5.0436 -6.96802 -2.97476 -0.0 0.0 0.0 -0.0 0.0 0.0 5.06898e-14 3.4214e-14 -1.00386e-13 21.167 5.40656 -1.40163 -4.6594 -2.21258 7.17099 -0.000155768 0.121017 0.0170123 3.81903e-10 -6.14684e-10 -5.05478e-10 6.59787e-10 -1.06442e-09 -8.74878e-10 3.81907e-10 -6.14684e-10 -5.05495e-10 7.73091 5.47488 0.417314 3.81902e-10 -6.14685e-10 -5.05475e-10 2.90554 0.965183 0.102902 3.81908e-10 -6.14684e-10 -5.05474e-10 10.2786 0.731801 0.0259123 3.81897e-10 -6.14683e-10 -5.05467e-10 2.22167 -0.733487 -0.20892 5.06293e-14 3.42133e-14 -1.00615e-13 -21.1387 1.49439 -0.726198 4.57491 -2.1546 -7.0614 -3.61395 -44.3601 0.93856 3.42037e-10 1.68677e-10 -6.41344e-11 5.69594e-10 3.06452e-10 -1.10603e-10 3.42035e-10 1.68677e-10 -6.41272e-11 -7.73091 5.47488 -0.417314 3.42039e-10 1.68678e-10 -6.41377e-11 -2.90554 0.965183 -0.102902 3.42033e-10 1.68678e-10 -6.41382e-11 -10.2786 0.731801 -0.0259123 3.42044e-10 1.6868e-10 -6.41499e-11 -2.22167 -0.733487 0.20892 -2.03217e-16 0.0 -3.88251e-19 2.58601 -11.6986 2.16053 0.0341856 15.5198 0.286003 -0.575961 -7.23668 -2.45034 2.03217e-16 0.0 3.88251e-19 3.57176 -8.05834 -0.980811 0.0249923 9.8712 -0.064441 0.0184051 -3.29066 -2.46499
57.2241 84.2266 -86.2123 -4.1113 -6.47 4.8182 4.10593 -2.98522 -2.07702 0.119461 3.15229 -0.506429 -3.57917 9.18249 -4.18513 9.5731 -14.2652 -6.26172 -0.0 0.0 0.0 -0.0 0.0 0.0 7.88175e-14 7.38726e-14 -2.1511e-13 43.832 11.0805 -2.92198 -8.98981 -4.43755 14.7888 -0.000518843 0.214111 0.030104 5.0961e-10 -1.30564e-09 -1.08706e-09 8.80546e-10 -2.26092e-09 -1.88145e-09 5.09616e-10 -1.30564e-09 -1.08708e-09 7.73091 5.47488 0.417314 5.0961e-10 -1.30564e-09 -1.08706e-09 2.90554 0.965183 0.102902 5.09618e-10 -1.30564e-09 -1.08706e-09 10.2786 0.731801 0.0259123 5.09607e-10 -1.30564e-09 -1.08705e-09 2.22167 -0.733487 -0.20892 7.87929e-14 7.3871e-14 -2.15265e-13 -43.4448 3.06843 -1.49961 8.8385 -4.32326 -14.5582 123.477 -88.1337 132.245 4.31895e-10 3.63186e-10 -1.35802e-10 7.01098e-10 6.59459e-10 -2.34397e-10 4.31895e-10 3.63187e-10 -1.35794e-10 -7.73091 5.47488 -0.417314 4.31899e-10 3.63189e-10 -1.35806e-10 -2.90554 0.965183 -0.102902 4.3189e-10 3.63189e-10 -1.35804e-10 -10.2786 0.731801 -0.0259123 4.31903e-10 3.63191e-10 -1.35814e-10 -2.22167 -0.733487 0.20892 -2.03217e-16 0.0 -3.88251e-19 3.34682 -15.7828 4.77117 0.02155 22.8785 0.461338 -1.23317 -14.0368 -5.20876 2.03217e-16 0.0 3.88251e-19 5.85971 -14.531 -2.06167 0.108784 22.5038 -0.226979 -1.15541 -10.9612 -5.00529
57.262 84.2376 -86.3032 -4.0116 -6.1327 4.9137 4.88823 -4.35103 -3.05962 -0.0857709 4.58901 -0.788328 -4.75664 13.3548 -6.19753 12.8435 -20.6708 -9.47325 -0.0 0.0 0.0 -0.0 0.0 0.0 9.75059e-14 1.0299e-13 -3.01358e-13 64.3217 16.18 -4.35917 -12.3519 -6.22275 21.6307 -0.0006829 0.363049 0.0510379 6.12561e-10 -1.84058e-09 -1.51508e-09 1.05865e-09 -3.18729e-09 -2.62228e-09 6.12569e-10 -1.84058e-09 -1.51509e-09 7.73091 5.47488 0.417314 6.12562e-10 -1.84059e-09 -1.51508e-09 2.90554 0.965183 0.102902 6.12571e-10 -1.84059e-09 -1.51508e-09 10.2786 0.731801 0.0259123 6.12561e-10 -1.84059e-09 -1.51507e-09 2.22167 -0.733487 -0.20892 9.75138e-14 1.02988e-13 -3.01448e-13 -63.3022 4.4803 -2.18453 12.1643 -6.07192 -21.2944 165.039 -46.8703 177.055 4.92932e-10 5.09577e-10 -1.91067e-10 7.87977e-10 9.25481e-10 -3.2948e-10 4.92933e-10 5.0958e-10 -1.91059e-10 -7.73091 5.47488 -0.417314 4.92938e-10 5.09582e-10 -1.91071e-10 -2.90554 0.965183 -0.102902 4.92926e-10 5.09583e-10 -1.91068e-10 -10.2786 0.731801 -0.0259123 4.9294e-10 5.09584e-10 -1.91076e-10 -2.22167 -0.733487 0.20892 -2.03217e-16 0.0 -3.88251e-19 4.35536 -19.3747 7.20129 -0.0337601 29.4398 0.641005 -2.40578 -20.0221 -7.8633 2.03217e-16 0.0 3.88251e-19 7.67926 -20.294 -3.10089 0.25651 33.7701 -0.409086 -2.80777 -17.7363 -7.45939
57.3068 84.2617 -86.472 -3.9273 -5.4019 5.094 5.40484 -5.30496 -3.74099 -0.221518 5.57669 -0.983958 -5.3826 16.2502 -7.67632 14.6091 -25.0658 -11.9795 -0.0 0.0 0.0 -0.0 0.0 0.0 9.25958e-14 1.05755e-13 -3.16415e-13 78.7966 19.8803 -5.44712 -14.4283 -7.30534 26.4199 -0.000520757 0.651596 0.0915799 6.53623e-10 -1.98552e-09 -1.55916e-09 1.13012e-09 -3.43832e-09 -2.69876e-09 6.53632e-10 -1.98552e-09 -1.55917e-09 7.73091 5.47488 0.417314 6.53625e-10 -1.98552e-09 -1.55916e-09 2.90554 0.965183 0.102902 6.53634e-10 -1.98552e-09 -1.55916e-09 10.2786 0.731801 0.0259123 6.53625e-10 -1.98552e-09 -1.55916e-09 2.22167 -0.733487 -0.20892 9.26279e-14 1.05752e-13 -3.16465e-13 -77.1191 5.48955 -2.64256 14.2329 -7.14397 -26.0239 163.6 -17.6893 177.431 4.81918e-10 5.35675e-10 -2.05327e-10 7.63292e-10 9.74039e-10 -3.52784e-10 4.81918e-10 5.3568e-10 -2.05318e-10 -7.73091 5.47488 -0.417314 4.81924e-10 5.35681e-10 -2.0533e-10 -2.90554 0.965183 -0.102902 4.8191e-10 5.35682e-10 -2.05326e-10 -10.2786 0.731801 -0.0259123 4.81925e-10 5.35683e-10 -2.05333e-10 -2.22167 -0.733487 0.20892 -2.03217e-16 0.0 -3.88251e-19 5.24365 -21.8407 8.95271 -0.101869 34.0088 0.784986 -3.57537 -24.1181 -9.86244 2.03217e-16 0.0 3.88251e-19 8.80926 -24.3051 -3.88555 0.417213 41.6212 -0.576319 -4.33662 -22.402 -9.34392
57.3385 84.2707 -86.5699 -3.9451 -5.1223 5.2609 5.59717 -5.6888 -3.99282 -0.276061 5.93755 -1.05642 -5.55236 17.4073 -8.31444 15.0753 -26.8215 -13.1292 -0.0 0.0 0.0 -0.0 0.0 0.0 5.07466e-14 6.6668e-14 -2.06913e-13 84.5818 21.6968 -5.94369 -15.1699 -7.67348 28.2656 -0.000651449 1.19824 0.168392 5.42988e-10 -1.43828e-09 -9.49135e-10 9.40146e-10 -2.49092e-09 -1.64317e-09 5.42996e-10 -1.43827e-09 -9.49146e-10 7.73091 5.47488 0.417314 5.42989e-10 -1.43828e-09 -9.49132e-10 2.90554 0.965183 0.102902 5.42998e-10 -1.43828e-09 -9.49135e-10 10.2786 0.731801 0.0259123 5.42989e-10 -1.43828e-09 -9.4913e-10 2.22167 -0.733487 -0.20892 5.0791e-14 6.66665e-14 -2.06953e-13 -82.5165 5.94573 -2.7731 14.9916 -7.52554 -27.8862 162.996 -6.16664 177.382 3.35041e-10 3.70587e-10 -1.68994e-10 5.28873e-10 6.72616e-10 -2.84313e-10 3.35041e-10 3.70592e-10 -1.68983e-10 -7.73091 5.47488 -0.417314 3.35047e-10 3.70592e-10 -1.68995e-10 -2.90554 0.965183 -0.102902 3.35034e-10 3.70593e-10 -1.68992e-10 -10.2786 0.731801 -0.0259123 3.35048e-10 3.70594e-10 -1.69e-10 -2.22167 -0.733487 0.20892 -2.03217e-16 0.0 -3.88251e-19 5.60738 -22.8 9.60413 -0.135885 35.7886 0.845569 -4.09062 -25.6735 -10.6355 2.03217e-16 0.0 3.88251e-19 9.21278 -25.8776 -4.19782 0.498284 44.6907 -0.655784 -5.03243 -24.2173 -10.1402
57.3444 84.2708 -86.5416 -3.8866 -5.3291 5.2166 5.56949 -5.66637 -3.93642 -0.275948 5.85069 -1.04047 -5.47634 17.3366 -8.3207 14.8352 -26.7455 -13.1853 -0.0 0.0 0.0 -0.0 0.0 0.0 -1.73019e-14 -2.07634e-15 -9.62552e-15 84.0832 22.1745 -5.98202 -15.0576 -7.60774 27.994 -0.00284707 1.92625 0.270759 3.27096e-10 -4.03574e-10 1.22562e-10 5.68764e-10 -6.99532e-10 2.11431e-10 3.27101e-10 -4.0357e-10 1.22552e-10 7.73091 5.47488 0.417314 3.27095e-10 -4.03574e-10 1.22564e-10 2.90554 0.965183 0.102902 3.27104e-10 -4.03572e-10 1.2256e-10 10.2786 0.731801 0.0259123 3.27094e-10 -4.03573e-10 1.22566e-10 2.22167 -0.733487 -0.20892 -1.72537e-14 -2.07619e-15 -9.67831e-15 -81.9083 6.00695 -2.66884 14.9119 -7.48696 -27.6858 163.066 -7.25446 177.419 9.2786e-11 7.00208e-11 -9.61975e-11 1.47194e-10 1.23376e-10 -1.49873e-10 9.27836e-11 7.00272e-11 -9.61855e-11 -7.73091 5.47488 -0.417314 9.27912e-11 7.00257e-11 -9.61967e-11 -2.90554 0.965183 -0.102902 9.27798e-11 7.00267e-11 -9.61961e-11 -10.2786 0.731801 -0.0259123 9.27916e-11 7.00271e-11 -9.62048e-11 -2.22167 -0.733487 0.20892 -2.03217e-16 0.0 -3.88251e-19 5.51366 -22.7023 9.43246 -0.131152 35.5763 0.836297 -3.97789 -25.4473 -10.446 2.03217e-16 0.0 3.88251e-19 9.15941 -25.7135 -4.13901 0.489431 44.345 -0.646045 -4.96139 -24.0283 -10.0666
